# xmcd CD database file
#
# Track frame offsets:
#	150
#	16925
#	36617
#	53320
#
# Disc length: 934 seconds
#
# Revision: 0
# Processed by: cddbd v1.5PL3 Copyright (c) Steve Scherf et al.
# Submitted via: CDex 1.51
#
DISCID=2703a404
DTITLE=特撮 - ヨギナクサレ
DYEAR=2004
DGENRE=Rock
TTITLE0=ヨギナクサレ
TTITLE1=殺神
TTITLE2=ヤンガリー　1.ヤンガリー　2.アクアヤンガリー
TTITLE3=ヨギナクサレ(Instrumental)
EXTD=YEAR: 2004.3.26
EXTT0=
EXTT1=
EXTT2=
EXTT3=
PLAYORDER=
